<svg width="243" height="243" viewBox="0 0 243 243" fill="none" xmlns="http://www.w3.org/2000/svg">
<path d="M185.288 60.75L162 101.25C173.138 101.25 182.672 105.216 190.603 113.147C198.534 121.078 202.5 130.612 202.5 141.75C202.5 152.888 198.534 162.422 190.603 170.353C182.672 178.284 173.138 182.25 162 182.25C150.862 182.25 141.328 178.284 133.397 170.353C125.466 162.422 121.5 152.888 121.5 141.75C121.5 137.869 121.962 134.281 122.887 130.987C123.812 127.693 125.206 124.531 127.069 121.5L162 60.75H185.288ZM94.1625 60.75L70.875 101.25C82.0125 101.25 91.5469 105.216 99.4781 113.147C107.409 121.078 111.375 130.612 111.375 141.75C111.375 152.888 107.409 162.422 99.4781 170.353C91.5469 178.284 82.0125 182.25 70.875 182.25C59.7375 182.25 50.2031 178.284 42.2719 170.353C34.3406 162.422 30.375 152.888 30.375 141.75C30.375 137.869 30.8374 134.281 31.7621 130.987C32.6869 127.693 34.0807 124.531 35.9437 121.5L70.875 60.75H94.1625Z" fill="#F5F5F5"/>
</svg>
